<?xml version="1.0" encoding="UTF-8"?>
<svg version="1.1" xmlns="http://www.w3.org/2000/svg" width="83" height="83">
<path d="M0 0 C0.64443558 -0.00671722 1.28887115 -0.01343445 1.95283508 -0.02035522 C4.07752247 -0.03931084 6.20189354 -0.04325815 8.32666016 -0.04541016 C9.8087273 -0.05183994 11.29079317 -0.05856844 12.77285767 -0.06558228 C15.87806134 -0.07754902 18.98315381 -0.08126374 22.08837891 -0.08007812 C26.05856039 -0.079875 30.02802552 -0.10717223 33.99803734 -0.14162254 C37.05906418 -0.16391039 40.11991916 -0.1679151 43.18101883 -0.16685867 C44.6441965 -0.16921199 46.1073791 -0.17802041 47.57047653 -0.19352341 C49.62170657 -0.21322283 51.67139901 -0.20733211 53.72265625 -0.1953125 C55.46994522 -0.19958755 55.46994522 -0.19958755 57.25253296 -0.20394897 C61.84495906 0.49732123 65.07281062 2.36439808 67.8475647 6.13369751 C68.72478974 9.07547116 68.76112631 11.7291744 68.78125 14.79980469 C68.78796722 15.44424026 68.79468445 16.08867584 68.80160522 16.75263977 C68.82056084 18.87732715 68.82450815 21.00169823 68.82666016 23.12646484 C68.83308994 24.60853199 68.83981844 26.09059786 68.84683228 27.57266235 C68.85879902 30.67786602 68.86251374 33.7829585 68.86132812 36.88818359 C68.861125 40.85836507 68.88842223 44.82783021 68.92287254 48.79784203 C68.94516039 51.85886887 68.9491651 54.91972385 68.94810867 57.98082352 C68.95046199 59.44400119 68.95927041 60.90718379 68.97477341 62.37028122 C68.99447283 64.42151125 68.98858211 66.47120369 68.9765625 68.52246094 C68.97941254 69.68732025 68.98226257 70.85217957 68.98519897 72.05233765 C68.28392877 76.64476374 66.41685192 79.87261531 62.64755249 82.64736938 C59.70577884 83.52459442 57.0520756 83.560931 53.98144531 83.58105469 C53.01479195 83.59113052 53.01479195 83.59113052 52.02861023 83.60140991 C49.90392285 83.62036553 47.77955177 83.62431283 45.65478516 83.62646484 C44.17271801 83.63289463 42.69065214 83.63962313 41.20858765 83.64663696 C38.10338398 83.65860371 34.9982915 83.66231843 31.89306641 83.66113281 C27.92288493 83.66092969 23.95341979 83.68822692 19.98340797 83.72267723 C16.92238113 83.74496508 13.86152615 83.74896979 10.80042648 83.74791336 C9.33724881 83.75026668 7.87406621 83.7590751 6.41096878 83.77457809 C4.35973875 83.79427752 2.31004631 83.7883868 0.25878906 83.77636719 C-1.48849991 83.78064224 -1.48849991 83.78064224 -3.27108765 83.78500366 C-7.86351374 83.08373346 -11.09136531 81.21665661 -13.86611938 77.44735718 C-14.74334442 74.50558353 -14.779681 71.85188029 -14.79980469 68.78125 C-14.80652191 68.13681442 -14.81323914 67.49237885 -14.82015991 66.82841492 C-14.83911553 64.70372753 -14.84306283 62.57935646 -14.84521484 60.45458984 C-14.85164463 58.9725227 -14.85837313 57.49045683 -14.86538696 56.00839233 C-14.87735371 52.90318866 -14.88106843 49.79809619 -14.87988281 46.69287109 C-14.87967969 42.72268961 -14.90697692 38.75322448 -14.94142723 34.78321266 C-14.96371508 31.72218582 -14.96771979 28.66133084 -14.96666336 25.60023117 C-14.96901668 24.1370535 -14.9778251 22.6738709 -14.99332809 21.21077347 C-15.01302752 19.15954343 -15.0071368 17.10985099 -14.99511719 15.05859375 C-14.99796722 13.89373444 -15.00081726 12.72887512 -15.00375366 11.52871704 C-14.30248346 6.93629094 -12.43540661 3.70843938 -8.66610718 0.9336853 C-5.72433353 0.05646026 -3.07063029 0.02012369 0 0 Z M17.49072266 6.29052734 C8.38461149 27.71019784 8.38461149 27.71019784 4.49072266 50.29052734 C6.30839595 51.88443984 8.12278981 53.34332579 10.05322266 54.79052734 C10.91983521 55.44722412 10.91983521 55.44722412 11.80395508 56.1171875 C16.21935588 59.42416638 20.72697904 62.58566487 25.30322266 65.66552734 C25.90013916 66.06964844 26.49705566 66.47376953 27.11206055 66.89013672 C31.41283122 69.73718414 35.84418435 72.05160129 40.49072266 74.29052734 C40.72259277 73.35781006 40.95446289 72.42509277 41.19335938 71.46411133 C42.06062753 67.97682739 42.92949591 64.48994375 43.79882812 61.00317383 C44.17360834 59.49904945 44.54796464 57.99481937 44.921875 56.49047852 C45.46191583 54.31807427 46.00352118 52.14606497 46.54541016 49.97412109 C46.71007782 49.31028915 46.87474548 48.64645721 47.04440308 47.96250916 C47.84031598 44.77848186 48.68614067 41.6247343 49.6105957 38.47509766 C50.55643811 35.05274859 50.90350735 33.54046931 49.49072266 30.29052734 C47.36300023 28.47648861 45.37673786 26.99081745 43.05322266 25.47802734 C41.76907656 24.60406281 40.48653308 23.72773908 39.20556641 22.84912109 C38.57247559 22.41841309 37.93938477 21.98770508 37.28710938 21.54394531 C34.0488864 19.28449482 31.0159296 16.78033378 27.96728516 14.27490234 C24.53887282 11.52784641 21.01550753 8.91216063 17.49072266 6.29052734 Z " fill="#FFAA33" transform="translate(14.50927734375,-0.29052734375)"/>
</svg>
